<mxfile host="app.diagrams.net" modified="2021-01-07T10:35:55.440Z" agent="5.0 (Windows NT 6.3; Win64; x64) AppleWebKit/537.36 (KHTML, like Gecko) Chrome/86.0.4240.193 Safari/537.36" etag="pDnDkINMhhMZ8OOS2Jld" version="14.1.8" type="github">
  <diagram id="R2lEEEUBdFMjLlhIrx00" name="Page-1">
    <mxGraphModel dx="820" dy="570" grid="0" gridSize="10" guides="1" tooltips="1" connect="1" arrows="1" fold="1" page="0" pageScale="1" pageWidth="850" pageHeight="1100" math="0" shadow="0" extFonts="Permanent Marker^https://fonts.googleapis.com/css?family=Permanent+Marker">
      <root>
        <mxCell id="0" />
        <mxCell id="1" parent="0" />
        <mxCell id="ETopGWIWWFFzmafr7ryn-1" value="监测站点" style="whiteSpace=wrap;html=1;align=center;" vertex="1" parent="1">
          <mxGeometry x="40" y="130" width="100" height="40" as="geometry" />
        </mxCell>
        <mxCell id="ETopGWIWWFFzmafr7ryn-2" value="气象数据" style="whiteSpace=wrap;html=1;align=center;" vertex="1" parent="1">
          <mxGeometry x="255" y="70" width="100" height="40" as="geometry" />
        </mxCell>
        <mxCell id="ETopGWIWWFFzmafr7ryn-3" value="水雨情数据" style="whiteSpace=wrap;html=1;align=center;" vertex="1" parent="1">
          <mxGeometry x="255" y="130" width="100" height="40" as="geometry" />
        </mxCell>
        <mxCell id="ETopGWIWWFFzmafr7ryn-4" value="监测站点指标" style="whiteSpace=wrap;html=1;align=center;" vertex="1" parent="1">
          <mxGeometry x="40" y="40" width="100" height="40" as="geometry" />
        </mxCell>
        <mxCell id="ETopGWIWWFFzmafr7ryn-5" value="" style="fontSize=12;html=1;endArrow=ERmandOne;startArrow=ERmandOne;entryX=0.5;entryY=0;entryDx=0;entryDy=0;exitX=0.5;exitY=1;exitDx=0;exitDy=0;" edge="1" parent="1" source="ETopGWIWWFFzmafr7ryn-4" target="ETopGWIWWFFzmafr7ryn-1">
          <mxGeometry width="100" height="100" relative="1" as="geometry">
            <mxPoint x="-10" y="280" as="sourcePoint" />
            <mxPoint x="20" y="240" as="targetPoint" />
          </mxGeometry>
        </mxCell>
        <mxCell id="ETopGWIWWFFzmafr7ryn-6" value="" style="edgeStyle=entityRelationEdgeStyle;fontSize=12;html=1;endArrow=ERoneToMany;entryX=0;entryY=0.5;entryDx=0;entryDy=0;" edge="1" parent="1" source="ETopGWIWWFFzmafr7ryn-1" target="ETopGWIWWFFzmafr7ryn-2">
          <mxGeometry width="100" height="100" relative="1" as="geometry">
            <mxPoint x="200" y="380" as="sourcePoint" />
            <mxPoint x="300" y="280" as="targetPoint" />
          </mxGeometry>
        </mxCell>
        <mxCell id="ETopGWIWWFFzmafr7ryn-7" value="" style="edgeStyle=entityRelationEdgeStyle;fontSize=12;html=1;endArrow=ERoneToMany;exitX=1;exitY=0.5;exitDx=0;exitDy=0;entryX=0;entryY=0.5;entryDx=0;entryDy=0;" edge="1" parent="1" source="ETopGWIWWFFzmafr7ryn-1" target="ETopGWIWWFFzmafr7ryn-3">
          <mxGeometry width="100" height="100" relative="1" as="geometry">
            <mxPoint x="230" y="380" as="sourcePoint" />
            <mxPoint x="330" y="280" as="targetPoint" />
          </mxGeometry>
        </mxCell>
        <mxCell id="ETopGWIWWFFzmafr7ryn-8" value="汛情预警" style="whiteSpace=wrap;html=1;align=center;" vertex="1" parent="1">
          <mxGeometry x="255" y="200" width="100" height="40" as="geometry" />
        </mxCell>
        <mxCell id="ETopGWIWWFFzmafr7ryn-9" value="" style="edgeStyle=entityRelationEdgeStyle;fontSize=12;html=1;endArrow=ERoneToMany;exitX=1;exitY=0.5;exitDx=0;exitDy=0;" edge="1" parent="1" source="ETopGWIWWFFzmafr7ryn-1" target="ETopGWIWWFFzmafr7ryn-8">
          <mxGeometry width="100" height="100" relative="1" as="geometry">
            <mxPoint x="260" y="400" as="sourcePoint" />
            <mxPoint x="360" y="300" as="targetPoint" />
          </mxGeometry>
        </mxCell>
        <mxCell id="ETopGWIWWFFzmafr7ryn-10" value="监测站点状态" style="whiteSpace=wrap;html=1;align=center;" vertex="1" parent="1">
          <mxGeometry x="40" y="220" width="100" height="40" as="geometry" />
        </mxCell>
        <mxCell id="ETopGWIWWFFzmafr7ryn-11" value="" style="edgeStyle=orthogonalEdgeStyle;fontSize=12;html=1;endArrow=ERoneToMany;exitX=0.5;exitY=1;exitDx=0;exitDy=0;entryX=0.5;entryY=0;entryDx=0;entryDy=0;" edge="1" parent="1" source="ETopGWIWWFFzmafr7ryn-1" target="ETopGWIWWFFzmafr7ryn-10">
          <mxGeometry width="100" height="100" relative="1" as="geometry">
            <mxPoint x="130" y="430" as="sourcePoint" />
            <mxPoint x="230" y="330" as="targetPoint" />
          </mxGeometry>
        </mxCell>
        <mxCell id="ETopGWIWWFFzmafr7ryn-13" value="取水口水位监测调度表" style="whiteSpace=wrap;html=1;align=center;fontFamily=仿宋;fontSize=14;" vertex="1" parent="1">
          <mxGeometry x="290" y="640" width="100" height="40" as="geometry" />
        </mxCell>
        <mxCell id="ETopGWIWWFFzmafr7ryn-16" value="取水口水位告警" style="whiteSpace=wrap;html=1;align=center;fontFamily=仿宋;fontSize=14;" vertex="1" parent="1">
          <mxGeometry x="490" y="640" width="100" height="40" as="geometry" />
        </mxCell>
        <mxCell id="ETopGWIWWFFzmafr7ryn-17" value="取水口预警规则表" style="whiteSpace=wrap;html=1;align=center;fontFamily=仿宋;fontSize=14;" vertex="1" parent="1">
          <mxGeometry x="290" y="750" width="100" height="40" as="geometry" />
        </mxCell>
        <mxCell id="ETopGWIWWFFzmafr7ryn-18" value="" style="edgeStyle=orthogonalEdgeStyle;fontSize=14;html=1;endArrow=ERmandOne;startArrow=ERmandOne;entryX=0.5;entryY=1;entryDx=0;entryDy=0;exitX=0.5;exitY=0;exitDx=0;exitDy=0;fontFamily=仿宋;" edge="1" parent="1" target="ETopGWIWWFFzmafr7ryn-13" source="ETopGWIWWFFzmafr7ryn-17">
          <mxGeometry width="100" height="100" relative="1" as="geometry">
            <mxPoint x="370" y="710" as="sourcePoint" />
            <mxPoint x="520" y="780" as="targetPoint" />
          </mxGeometry>
        </mxCell>
        <mxCell id="ETopGWIWWFFzmafr7ryn-19" value="水厂基本信息表" style="whiteSpace=wrap;html=1;align=center;fontFamily=仿宋;fontSize=14;" vertex="1" parent="1">
          <mxGeometry x="120" y="476" width="100" height="40" as="geometry" />
        </mxCell>
        <mxCell id="ETopGWIWWFFzmafr7ryn-21" value="水厂取水口信息表" style="whiteSpace=wrap;html=1;align=center;fontFamily=仿宋;fontSize=14;" vertex="1" parent="1">
          <mxGeometry x="120" y="640" width="100" height="40" as="geometry" />
        </mxCell>
        <mxCell id="ETopGWIWWFFzmafr7ryn-27" value="" style="edgeStyle=entityRelationEdgeStyle;fontSize=14;html=1;endArrow=ERzeroToMany;endFill=1;entryX=0;entryY=0.5;entryDx=0;entryDy=0;fontFamily=仿宋;" edge="1" parent="1" source="ETopGWIWWFFzmafr7ryn-13" target="ETopGWIWWFFzmafr7ryn-16">
          <mxGeometry width="100" height="100" relative="1" as="geometry">
            <mxPoint x="390" y="660" as="sourcePoint" />
            <mxPoint x="505" y="660" as="targetPoint" />
          </mxGeometry>
        </mxCell>
        <mxCell id="ETopGWIWWFFzmafr7ryn-28" value="" style="edgeStyle=orthogonalEdgeStyle;fontSize=14;html=1;endArrow=ERoneToMany;exitX=1;exitY=0.5;exitDx=0;exitDy=0;entryX=0;entryY=0.5;entryDx=0;entryDy=0;fontFamily=仿宋;" edge="1" parent="1" source="ETopGWIWWFFzmafr7ryn-21" target="ETopGWIWWFFzmafr7ryn-13">
          <mxGeometry width="100" height="100" relative="1" as="geometry">
            <mxPoint x="240" y="940" as="sourcePoint" />
            <mxPoint x="340" y="840" as="targetPoint" />
          </mxGeometry>
        </mxCell>
        <mxCell id="ETopGWIWWFFzmafr7ryn-29" value="水厂取水口水位数据表" style="whiteSpace=wrap;html=1;align=center;fontFamily=仿宋;fontSize=14;" vertex="1" parent="1">
          <mxGeometry x="120" y="752" width="100" height="40" as="geometry" />
        </mxCell>
        <mxCell id="ETopGWIWWFFzmafr7ryn-30" value="" style="edgeStyle=orthogonalEdgeStyle;fontSize=12;html=1;endArrow=ERoneToMany;exitX=0.5;exitY=1;exitDx=0;exitDy=0;entryX=0.5;entryY=0;entryDx=0;entryDy=0;fontFamily=仿宋;" edge="1" parent="1" source="ETopGWIWWFFzmafr7ryn-21" target="ETopGWIWWFFzmafr7ryn-29">
          <mxGeometry width="100" height="100" relative="1" as="geometry">
            <mxPoint x="252" y="930" as="sourcePoint" />
            <mxPoint x="352" y="830" as="targetPoint" />
          </mxGeometry>
        </mxCell>
        <mxCell id="ETopGWIWWFFzmafr7ryn-31" value="水厂与取水口关系表" style="shape=associativeEntity;whiteSpace=wrap;html=1;align=center;fontFamily=仿宋;fontSize=14;" vertex="1" parent="1">
          <mxGeometry x="100" y="546" width="140" height="60" as="geometry" />
        </mxCell>
        <mxCell id="ETopGWIWWFFzmafr7ryn-32" value="" style="endArrow=none;html=1;rounded=0;fontFamily=仿宋;fontSize=14;exitX=0.5;exitY=1;exitDx=0;exitDy=0;" edge="1" parent="1" source="ETopGWIWWFFzmafr7ryn-19" target="ETopGWIWWFFzmafr7ryn-31">
          <mxGeometry relative="1" as="geometry">
            <mxPoint x="322" y="563" as="sourcePoint" />
            <mxPoint x="482" y="563" as="targetPoint" />
          </mxGeometry>
        </mxCell>
        <mxCell id="ETopGWIWWFFzmafr7ryn-33" value="N" style="resizable=0;html=1;align=right;verticalAlign=bottom;" connectable="0" vertex="1" parent="ETopGWIWWFFzmafr7ryn-32">
          <mxGeometry x="1" relative="1" as="geometry" />
        </mxCell>
        <mxCell id="ETopGWIWWFFzmafr7ryn-34" value="" style="endArrow=none;html=1;rounded=0;fontFamily=仿宋;fontSize=14;exitX=0.5;exitY=1;exitDx=0;exitDy=0;" edge="1" parent="1" source="ETopGWIWWFFzmafr7ryn-31" target="ETopGWIWWFFzmafr7ryn-21">
          <mxGeometry relative="1" as="geometry">
            <mxPoint x="314" y="604" as="sourcePoint" />
            <mxPoint x="474" y="604" as="targetPoint" />
          </mxGeometry>
        </mxCell>
        <mxCell id="ETopGWIWWFFzmafr7ryn-35" value="N" style="resizable=0;html=1;align=right;verticalAlign=bottom;" connectable="0" vertex="1" parent="ETopGWIWWFFzmafr7ryn-34">
          <mxGeometry x="1" relative="1" as="geometry" />
        </mxCell>
        <mxCell id="ETopGWIWWFFzmafr7ryn-36" value="用户" style="whiteSpace=wrap;html=1;align=center;fontFamily=仿宋;fontSize=14;" vertex="1" parent="1">
          <mxGeometry x="513" y="908" width="100" height="40" as="geometry" />
        </mxCell>
        <mxCell id="ETopGWIWWFFzmafr7ryn-37" value="部门" style="whiteSpace=wrap;html=1;align=center;fontFamily=仿宋;fontSize=14;" vertex="1" parent="1">
          <mxGeometry x="199" y="908" width="100" height="40" as="geometry" />
        </mxCell>
        <mxCell id="ETopGWIWWFFzmafr7ryn-38" value="用户部门关联表" style="shape=associativeEntity;whiteSpace=wrap;html=1;align=center;fontFamily=仿宋;fontSize=14;" vertex="1" parent="1">
          <mxGeometry x="336" y="898" width="140" height="60" as="geometry" />
        </mxCell>
        <mxCell id="ETopGWIWWFFzmafr7ryn-39" value="" style="endArrow=none;html=1;rounded=0;fontFamily=仿宋;fontSize=14;exitX=1;exitY=0.5;exitDx=0;exitDy=0;entryX=0;entryY=0.5;entryDx=0;entryDy=0;" edge="1" parent="1" source="ETopGWIWWFFzmafr7ryn-37" target="ETopGWIWWFFzmafr7ryn-38">
          <mxGeometry relative="1" as="geometry">
            <mxPoint x="337" y="973" as="sourcePoint" />
            <mxPoint x="497" y="973" as="targetPoint" />
          </mxGeometry>
        </mxCell>
        <mxCell id="ETopGWIWWFFzmafr7ryn-40" value="N" style="resizable=0;html=1;align=right;verticalAlign=bottom;" connectable="0" vertex="1" parent="ETopGWIWWFFzmafr7ryn-39">
          <mxGeometry x="1" relative="1" as="geometry" />
        </mxCell>
        <mxCell id="ETopGWIWWFFzmafr7ryn-41" value="" style="endArrow=none;html=1;rounded=0;fontFamily=仿宋;fontSize=14;exitX=1;exitY=0.5;exitDx=0;exitDy=0;" edge="1" parent="1" source="ETopGWIWWFFzmafr7ryn-38" target="ETopGWIWWFFzmafr7ryn-36">
          <mxGeometry relative="1" as="geometry">
            <mxPoint x="532" y="970" as="sourcePoint" />
            <mxPoint x="692" y="970" as="targetPoint" />
          </mxGeometry>
        </mxCell>
        <mxCell id="ETopGWIWWFFzmafr7ryn-42" value="N" style="resizable=0;html=1;align=right;verticalAlign=bottom;" connectable="0" vertex="1" parent="ETopGWIWWFFzmafr7ryn-41">
          <mxGeometry x="1" relative="1" as="geometry" />
        </mxCell>
      </root>
    </mxGraphModel>
  </diagram>
</mxfile>
